# xmcd
# 
# Track frame offsets:
#     150
#     56477
#     105070
#     148322
# 
# Disc length: 2635
# 
# Revision: 0
# Processed by: cddbd v1.5.2PL0 Copyright (c) Steve Scherf et al.
# Submitted via: fre:ac v1.0.17
# 
DISCID=2e0a4904
DTITLE=Sponge Bob Schwammkopf - Folge 50 - CD1
DYEAR=2013
DGENRE=Hörspiel
TTITLE0=Imitationen
TTITLE1=Professor Thaddäus
TTITLE2=Wurmwelpen
TTITLE3=Schrott-Roboter
EXTD=
EXTT0=
EXTT1=
EXTT2=
EXTT3=
PLAYORDER=
